<svg id="Layer_1" data-name="Layer 1" xmlns="http://www.w3.org/2000/svg" viewBox="0 0 65 59.82">
<defs><style>.cls-1{fill:#f37047;}.cls-2{fill:#46b2e6;}.cls-3{fill:#67bc6b;}.cls-4{fill:#ffcc2a;}</style></defs><title>Logo</title>
<path class="cls-1" d="M49.5,2.45A35.11,35.11,0,0,0,37.8,18.39c4.14,3.31,7.45,10.14,9.11,13.87,1.45,3.42,3.93,9.73,4,14.8,2.79,1.66,5.8,2.28,8.9,1,6.62-3.1,5-9.94,5-9.94a14.84,14.84,0,0,0-7.66-9c6.31-3.93,6.52-10.76,6.93-13.14C64.3,13.63,61.71-7,49.5,2.45Zm6.83,15.73c-1.55,3.52-4.76,5.59-7,4.55s-2.9-4.76-1.24-8.28,4.76-5.59,7-4.55S57.88,14.66,56.33,18.18Z"/>
<path class="cls-2" d="M31.49,39C29.84,35.15,27,27.91,27.56,22.53a37.82,37.82,0,0,0-20-1.86c-15.83,2.79-2.28,18.63-.31,19.87s7.45,5.8,14.8,3.73a14.12,14.12,0,0,0,1.24,11.8,9.1,9.1,0,0,0,11,3,9.6,9.6,0,0,0,5.49-6.93C36,48.71,33,42.5,31.49,39ZM22.9,34.33c-0.83,2.38-4.45,3.21-8.18,2S8.83,32,9.66,29.67s4.45-3.21,8.18-2S23.73,31.95,22.9,34.33Z"/>

<circle class="cls-3" cx="28.09" cy="10.41" r="7.35" transform="translate(-1.82 12.08) rotate(-23.53)"/>
<ellipse class="cls-4" cx="39.17" cy="35.66" rx="4.35" ry="16.35" transform="translate(-10.98 18.61) rotate(-23.53)"/>
</svg>